<svg xmlns="http://www.w3.org/2000/svg" viewBox="0 0 24.6 24.6" width="24.6" height="24.6"><path fill="#7e7e7e" d="M18.3 24.2h-12a6 6 0 0 1-5.9-5.9v-12A6 6 0 0 1 6.3.4h12a6 6 0 0 1 5.9 5.9v12a6 6 0 0 1-5.9 5.9zM6.3 2.1a4.2 4.2 0 0 0-4.2 4.2v12a4.2 4.2 0 0 0 4.2 4.2h12a4.2 4.2 0 0 0 4.2-4.2v-12a4.2 4.2 0 0 0-4.2-4.2z"/><path fill="#7e7e7e" d="M12.3 18.2a5.9 5.9 0 1 1 5.9-5.9 5.8 5.8 0 0 1-5.9 5.9zm0-10.2a4.3 4.3 0 1 0 4.3 4.3A4.3 4.3 0 0 0 12.3 8z"/><circle cx="18.9" cy="6.2" r=".8" fill="none" stroke="#7e7e7e" stroke-linecap="round" stroke-miterlimit="10" stroke-width="1.64"/></svg>