<svg xmlns="http://www.w3.org/2000/svg" viewBox="0 0 14 25.1" width="14" height="25.1"><path fill="#7e7e7e" d="M8.4 25.1H5.1A1.1 1.1 0 0 1 4 24V12.1H1.2A1.2 1.2 0 0 1 0 10.9v-3a1.3 1.3 0 0 1 1.3-1.3h2.5c.3-3.7 2-5.3 3.4-6a6.4 6.4 0 0 1 6.2.4 1.6 1.6 0 0 1 .6 1.2L13.6 5a1.6 1.6 0 0 1-.6.8.9.9 0 0 1-1 0 2.3 2.3 0 0 0-1.8-.1 1.5 1.5 0 0 0-.6.9h1.8a1.1 1.1 0 0 1 1.1 1.1v3.2a1.2 1.2 0 0 1-1.2 1.2H9.5V24a1.1 1.1 0 0 1-1.1 1.1zm-2.9-1.5H8V11.7a1.1 1.1 0 0 1 1.1-1.1H11V8.1H9.2a1.1 1.1 0 0 1-.9-.4 1 1 0 0 1-.2-.9 2.7 2.7 0 0 1 1.4-2.4 2.9 2.9 0 0 1 2.6-.1l.3-2.1a5.1 5.1 0 0 0-4.6-.3c-1.5.8-2.3 2.4-2.5 4.9A1.3 1.3 0 0 1 4 8.1H1.5v2.5h2.8a1.2 1.2 0 0 1 1.2 1.2zM1.3 8.1zM4 6.6zm8.6-2.1z"/></svg>