<svg xmlns="http://www.w3.org/2000/svg"><symbol id="icons-ham-open" viewBox="0 0 26.6 20.1"><path fill="#dd715d" d="M25.3 2.6h-24A1.3 1.3 0 0 1 0 1.3 1.3 1.3 0 0 1 1.3 0h24a1.3 1.3 0 0 1 1.3 1.3 1.3 1.3 0 0 1-1.3 1.3zm0 8.7h-24A1.3 1.3 0 0 1 0 10a1.2 1.2 0 0 1 1.3-1.2h24a1.2 1.2 0 0 1 1.3 1.2 1.3 1.3 0 0 1-1.3 1.3zm0 8.8h-24a1.3 1.3 0 0 1 0-2.6h24a1.3 1.3 0 0 1 0 2.6z"/></symbol><symbol id="icons-facebook" viewBox="0 0 14 25.1"><path fill="#7e7e7e" d="M8.4 25.1H5.1A1.1 1.1 0 0 1 4 24V12.1H1.2A1.2 1.2 0 0 1 0 10.9v-3a1.3 1.3 0 0 1 1.3-1.3h2.5c.3-3.7 2-5.3 3.4-6a6.4 6.4 0 0 1 6.2.4 1.6 1.6 0 0 1 .6 1.2L13.6 5a1.6 1.6 0 0 1-.6.8.9.9 0 0 1-1 0 2.3 2.3 0 0 0-1.8-.1 1.5 1.5 0 0 0-.6.9h1.8a1.1 1.1 0 0 1 1.1 1.1v3.2a1.2 1.2 0 0 1-1.2 1.2H9.5V24a1.1 1.1 0 0 1-1.1 1.1zm-2.9-1.5H8V11.7a1.1 1.1 0 0 1 1.1-1.1H11V8.1H9.2a1.1 1.1 0 0 1-.9-.4 1 1 0 0 1-.2-.9 2.7 2.7 0 0 1 1.4-2.4 2.9 2.9 0 0 1 2.6-.1l.3-2.1a5.1 5.1 0 0 0-4.6-.3c-1.5.8-2.3 2.4-2.5 4.9A1.3 1.3 0 0 1 4 8.1H1.5v2.5h2.8a1.2 1.2 0 0 1 1.2 1.2zM1.3 8.1zM4 6.6zm8.6-2.1z"/></symbol><symbol id="icons-ham-close" viewBox="0 0 26.5 21.3"><path fill="#dd715d" d="M15.3 10.6L26 2.2a1.1 1.1 0 0 0 .2-1.7 1.1 1.1 0 0 0-1.7-.2L13.2 9 2 .3A1.1 1.1 0 0 0 .3.5a1.1 1.1 0 0 0 .2 1.7l10.7 8.4L.5 19a1.2 1.2 0 0 0-.2 1.8 1.2 1.2 0 0 0 1 .4A1 1 0 0 0 2 21l11.2-8.8L24.5 21a1 1 0 0 0 .7.2 1.2 1.2 0 0 0 1-.4A1.2 1.2 0 0 0 26 19z"/></symbol><symbol id="icons-instagram" viewBox="0 0 24.6 24.6"><path fill="#7e7e7e" d="M18.3 24.2h-12a6 6 0 0 1-5.9-5.9v-12A6 6 0 0 1 6.3.4h12a6 6 0 0 1 5.9 5.9v12a6 6 0 0 1-5.9 5.9zM6.3 2.1a4.2 4.2 0 0 0-4.2 4.2v12a4.2 4.2 0 0 0 4.2 4.2h12a4.2 4.2 0 0 0 4.2-4.2v-12a4.2 4.2 0 0 0-4.2-4.2z"/><path fill="#7e7e7e" d="M12.3 18.2a5.9 5.9 0 1 1 5.9-5.9 5.8 5.8 0 0 1-5.9 5.9zm0-10.2a4.3 4.3 0 1 0 4.3 4.3A4.3 4.3 0 0 0 12.3 8z"/><circle cx="18.9" cy="6.2" r=".8" fill="none" stroke="#7e7e7e" stroke-linecap="round" stroke-miterlimit="10" stroke-width="1.64"/></symbol><symbol id="icons-twitter" viewBox="0 0 25.2 21.2"><path fill="#7e7e7e" d="M24.5 2.4a1.5 1.5 0 0 0-1.1-2 1.5 1.5 0 0 0-1.3.2l-1.6.7a6.1 6.1 0 0 0-8.6 1.1 5.8 5.8 0 0 0-1.2 2.9 11.2 11.2 0 0 1-6.3-3.8A1.4 1.4 0 0 0 3.2.8H3a1.6 1.6 0 0 0-1.3.8 6.5 6.5 0 0 0-.8 3.1 5.2 5.2 0 0 0 .4 2.1 1.5 1.5 0 0 0-.4 1.1 6.7 6.7 0 0 0 1.6 4.2 1.1 1.1 0 0 0 0 .8 6.4 6.4 0 0 0 1.8 2.8l-1.7.2h-1A1.6 1.6 0 0 0 0 17.5a1.6 1.6 0 0 0 .8 1.4 14.2 14.2 0 0 0 7.8 2.3A14.2 14.2 0 0 0 23 7.1v-.2a9.5 9.5 0 0 0 1.9-2.1 1.7 1.7 0 0 0 .3-1 1.7 1.7 0 0 0-.7-1.4zm-3.2 3.7v.6A12.8 12.8 0 0 1 8.5 19.5a13.2 13.2 0 0 1-6.9-2h1.1a9.5 9.5 0 0 0 5.6-1.9 4.5 4.5 0 0 1-4.2-3.1 4.5 4.5 0 0 0 2-.1 4.5 4.5 0 0 1-3.6-4.3 6.6 6.6 0 0 0 2 .6 4.5 4.5 0 0 1-1.4-6 13 13 0 0 0 9.3 4.7A4.5 4.5 0 0 1 15.8 2a4.3 4.3 0 0 1 4.3 1.3A10.2 10.2 0 0 0 23 2.1a4.9 4.9 0 0 1-2 2.5 11.1 11.1 0 0 0 2.6-.7 24.4 24.4 0 0 1-2.3 2.2z"/></symbol></svg>