<svg xmlns="http://www.w3.org/2000/svg"><symbol id="ham-open" viewBox="0 0 26.6 20.1"><path fill="#dd715d" d="M25.3 2.6h-24A1.3 1.3 0 0 1 0 1.3 1.3 1.3 0 0 1 1.3 0h24a1.3 1.3 0 0 1 1.3 1.3 1.3 1.3 0 0 1-1.3 1.3zm0 8.7h-24A1.3 1.3 0 0 1 0 10a1.2 1.2 0 0 1 1.3-1.2h24a1.2 1.2 0 0 1 1.3 1.2 1.3 1.3 0 0 1-1.3 1.3zm0 8.8h-24a1.3 1.3 0 0 1 0-2.6h24a1.3 1.3 0 0 1 0 2.6z"/></symbol><symbol id="form-downarrow" viewBox="0 0 10.1 11"><path fill="#7e7e7e" d="M5.1 11l5-11H0l5.1 11z"/></symbol><symbol id="ham-close" viewBox="0 0 26.5 21.3"><path fill="#dd715d" d="M15.3 10.6L26 2.2a1.1 1.1 0 0 0 .2-1.7 1.1 1.1 0 0 0-1.7-.2L13.2 9 2 .3A1.1 1.1 0 0 0 .3.5a1.1 1.1 0 0 0 .2 1.7l10.7 8.4L.5 19a1.2 1.2 0 0 0-.2 1.8 1.2 1.2 0 0 0 1 .4A1 1 0 0 0 2 21l11.2-8.8L24.5 21a1 1 0 0 0 .7.2 1.2 1.2 0 0 0 1-.4A1.2 1.2 0 0 0 26 19z"/></symbol><symbol id="instagram" viewBox="0 0 612 792"><style>.st0{fill:#454443}</style><path d="M448.6 336.9c-.7-15.3-3.1-25.7-6.7-34.8-3.7-9.4-8.6-17.4-16.5-25.4-8-8-16-12.9-25.4-16.5-9.1-3.5-19.6-6-34.8-6.7-15.3-.7-20.2-.9-59.1-.9s-43.8.2-59.1.9c-15.3.7-25.7 3.1-34.8 6.7-9.4 3.7-17.4 8.6-25.4 16.5-8 8-12.9 16-16.5 25.4-3.5 9.1-6 19.6-6.7 34.8-.7 15.3-.9 20.2-.9 59.1s.2 43.8.9 59.1c.7 15.3 3.1 25.7 6.7 34.8 3.7 9.4 8.6 17.4 16.5 25.4 8 8 16 12.9 25.4 16.5 9.1 3.5 19.6 6 34.8 6.7 15.3.7 20.2.9 59.1.9s43.8-.2 59.1-.9c15.3-.7 25.7-3.1 34.8-6.7 9.4-3.7 17.4-8.6 25.4-16.5 8-8 12.9-16 16.5-25.4 3.5-9.1 6-19.6 6.7-34.8.7-15.3.9-20.2.9-59.1s-.2-43.8-.9-59.1zM422.8 454c-.6 14-3 21.6-4.9 26.6-2.6 6.7-5.7 11.5-10.7 16.5-5 5-9.8 8.1-16.5 10.7-5.1 2-12.7 4.3-26.6 4.9-15.1.7-19.7.8-58 .8s-42.8-.1-58-.8c-14-.6-21.6-3-26.6-4.9-6.7-2.6-11.5-5.7-16.5-10.7s-8.1-9.8-10.7-16.5c-2-5.1-4.3-12.7-4.9-26.6-.7-15.1-.8-19.7-.8-58s.1-42.8.8-58c.6-14 3-21.6 4.9-26.6 2.6-6.7 5.7-11.5 10.7-16.5 5-5 9.8-8.1 16.5-10.7 5.1-2 12.7-4.3 26.6-4.9 15.1-.7 19.7-.8 58-.8s42.8.1 58 .8c14 .6 21.6 3 26.6 4.9 6.7 2.6 11.5 5.7 16.5 10.7 5 5 8.1 9.8 10.7 16.5 2 5.1 4.3 12.7 4.9 26.6.7 15.1.8 19.7.8 58s-.2 42.8-.8 58zM306 322.3c-40.7 0-73.7 33-73.7 73.7s33 73.7 73.7 73.7 73.7-33 73.7-73.7-33-73.7-73.7-73.7zm0 121.5c-26.4 0-47.8-21.4-47.8-47.8s21.4-47.8 47.8-47.8 47.8 21.4 47.8 47.8-21.4 47.8-47.8 47.8zm76.6-141.6c-9.5 0-17.2 7.7-17.2 17.2s7.7 17.2 17.2 17.2 17.2-7.7 17.2-17.2-7.7-17.2-17.2-17.2z" class="st0"/></symbol><symbol id="logo-16" viewBox="0 0 16 16"><style>.st0{fill:#2b705e}</style><path d="M16 16H0V0h16v16zM.9 15.1h14.2V.9H.9v14.2z" class="st0"/><path d="M4 4.1l2 5 2-5.2 1.8 5.3 2.2-5h1.2l-3.4 8L8 6.9l-2 5.3-3.3-8.1H4z" class="st0"/></symbol><symbol id="logo-32" viewBox="0 0 32 32"><g fill="#2b705e"><path d="M32 32H0V0h32zM.9 31.1h30.2V.9H.9z"/><path d="M6.1 6.1L8 11l2-5.3 1.9 5.3 2-4.9h1.2l-3.3 7.8L10 8.7l-2 5.2-3.1-7.8zm13.1 0v7.4H18V6.1zm5.1 0v6.3h2.1v1.1h-3.2V6.1zM6.8 18.5v6.3H9v1.1H5.7v-7.4zm2.7 3.7a3.4 3.4 0 0 1 1.2-2.7 3.5 3.5 0 0 1 2.7-1.1 3.7 3.7 0 0 1 2.7 1.1 3.6 3.6 0 0 1 1.1 2.7 3.3 3.3 0 0 1-1.1 2.7 4 4 0 0 1-2.7 1.1 3.9 3.9 0 0 1-3.9-3.8zm1.2 0a2.4 2.4 0 0 0 .8 2 2.7 2.7 0 0 0 3.8 0 2.6 2.6 0 0 0 .8-2 2.7 2.7 0 0 0-2.7-2.8 2.6 2.6 0 0 0-1.9.8 2.4 2.4 0 0 0-.8 2zm8.2-3.7l1.9 4.9 2-5.2 1.9 5.2 2-4.9H28l-3.3 7.8-1.9-5.2-2 5.2-3.1-7.8z"/></g></symbol><symbol id="logo-64" viewBox="0 0 64 64"><g fill="#2b705e"><path d="M64 64H0V0h64zM1.9 62.1h60.2V1.9H1.9z"/><path d="M12.1 12.2l3.8 9.8 4-10.5L23.8 22l4-9.8h2.5l-6.6 15.6-3.8-10.4L16 27.8 9.7 12.2zm26.2 0v14.7h-2.2V12.2zm10.3 0v12.6h4.3v2.1h-6.6V12.2zM13.6 37v12.7h4.3v2h-6.5V37zm5.5 7.3a7.2 7.2 0 0 1 2.3-5.3 7.3 7.3 0 0 1 5.4-2.2 7.3 7.3 0 0 1 5.4 2.2 7.6 7.6 0 0 1-5.5 13 7.2 7.2 0 0 1-5.1-2 7 7 0 0 1-2.5-5.7zm2.2 0a5.5 5.5 0 0 0 1.7 4.1 5.6 5.6 0 0 0 7.7-.1 5.4 5.4 0 0 0 1.5-3.9 5.3 5.3 0 0 0-5.4-5.6 5.5 5.5 0 0 0-5.5 5.5zM37.8 37l3.8 9.9 4-10.6 3.8 10.6 4.1-9.9h2.4l-6.6 15.7-3.8-10.4-3.9 10.4L35.3 37z"/></g></symbol><symbol id="logo-256" viewBox="0 0 255 255"><g fill="#2b705e"><path d="M255 255H0V0h255zM7.6 247.4h239.8V7.6H7.6z"/><path d="M48.3 48.6l15.2 39.2 16-42.1 15.2 42.1L111 48.6h9.6l-26.2 62.3-15.1-41.5L63.6 111 38.7 48.6zm104.3 0v58.6h-8.8V48.6zm40.9 0v50.3h17.2v8.3h-26.1V48.6zM54.2 147.5v50.4h17.3v8.3H45.4v-58.7zm21.9 29.1a28.7 28.7 0 0 1 9.1-21.3 29.8 29.8 0 0 1 21.7-8.9 30.7 30.7 0 0 1 30.5 30.5 28.9 28.9 0 0 1-9 21.5 31.3 31.3 0 0 1-42.4 1q-9.9-8.7-9.9-22.8zm8.9.1a21.1 21.1 0 0 0 6.6 16 20.8 20.8 0 0 0 15 6.3 21.2 21.2 0 0 0 15.5-6.4 22.7 22.7 0 0 0 .1-31.5 20.9 20.9 0 0 0-15.4-6.3A21.5 21.5 0 0 0 85 176.7zm65.4-29.2l15.3 39.2 16-42 15.2 42 16.2-39.2h9.6l-26.1 62.4-15.1-41.5-15.7 41.5-25-62.4z"/></g></symbol><symbol id="small-arrow" viewBox="0 0 16 4.3"><path fill="#7e7e7e" d="M16 2.1L12.3 0v1.8H0v.7h12.3v1.8L16 2.1z"/></symbol><symbol id="twitter" viewBox="0 0 612 792"><style>.st0{fill:#454443}</style><path d="M459 301.3c-11.5 4.8-23 8.6-36.3 9.6 13.4-7.6 23-20.1 27.7-34.4-12.4 7.6-25.8 12.4-40.2 15.3-11.5-12.4-27.7-20.1-44.9-20.1-34.4 0-63.1 27.7-63.1 63.1 0 4.8 1 9.6 1.9 14.3-52.6-2.9-98.5-27.7-129.1-66-5.7 9.6-8.6 20.1-8.6 31.6 0 22 11.5 41.1 27.7 52.6-10.5 0-20.1-2.9-28.7-7.6v1c0 30.6 22 55.5 50.7 61.2-5.7 1-10.5 1.9-16.3 1.9-3.8 0-7.6 0-11.5-1 7.6 24.9 31.6 43 58.3 44-21 17.2-48.8 26.8-78.4 26.8-4.8 0-10.5 0-15.3-1 27.7 18.2 61.2 27.7 96.6 27.7 115.7 0 178.8-95.6 178.8-178.8v-7.6c11.6-9.6 22.1-20.1 30.7-32.6z" class="st0"/></symbol></svg>