<svg id="Icon-temp" xmlns="http://www.w3.org/2000/svg" viewBox="0 0 14.8 34.6">
  <title>temp</title>
  <g>
    <path d="M7.4,34.6A7.5,7.5,0,0,1,2.8,21.3V4.6A4.7,4.7,0,0,1,7.4,0,4.7,4.7,0,0,1,12,4.6V21.3a7.9,7.9,0,0,1,2.8,5.9A7.4,7.4,0,0,1,7.4,34.6Zm0-33.1A3.1,3.1,0,0,0,4.3,4.6V22.1l-.3.2A6,6,0,0,0,7.4,33.1a5.8,5.8,0,0,0,5.9-5.9,6.4,6.4,0,0,0-2.5-4.9l-.3-.2V4.6A3.1,3.1,0,0,0,7.4,1.5Z" fill="#7ba57c"/>
    <path d="M8.9,24V9.9a.5.5,0,0,0-.5-.5h-2a.5.5,0,0,0-.5.5V23.8a3.9,3.9,0,0,0-2.2,3.4,3.7,3.7,0,0,0,5.4,3.3A3.6,3.6,0,0,0,10.6,29,3.5,3.5,0,0,0,8.9,24Z" fill="#7ba57c"/>
  </g>
</svg>
