<svg xmlns="http://www.w3.org/2000/svg" viewBox="0 0 21.4 27.8">
  <title>waterdrop</title>
  <g id="Icon-water">
    <g>
      <path d="M10.7,27.8A10.8,10.8,0,0,1,0,17.1c0-3,2.5-8,7.8-15.6A3.6,3.6,0,0,1,10.7,0h0a3.5,3.5,0,0,1,2.9,1.5c5.3,7.6,7.8,12.6,7.8,15.6A10.7,10.7,0,0,1,10.7,27.8Zm0-25.6a1.1,1.1,0,0,0-1.1.6c-4.9,7-7.4,11.8-7.4,14.3a8.6,8.6,0,0,0,8.5,8.5,8.5,8.5,0,0,0,8.5-8.5c0-2.5-2.5-7.3-7.4-14.3A1.4,1.4,0,0,0,10.7,2.2Z" fill="#7ba57c"/>
      <path d="M14.9,22.1c-.2,0-.4,0-.5-.2a.8.8,0,0,1-.2-1.1,6.8,6.8,0,0,0,1.5-3.7,12.1,12.1,0,0,0-1.6-4.8.8.8,0,1,1,1.5-.7,13.4,13.4,0,0,1,1.7,5.5,8.1,8.1,0,0,1-1.8,4.7A.9.9,0,0,1,14.9,22.1Z" fill="#7ba57c"/>
    </g>
  </g>
</svg>
