<svg xmlns="http://www.w3.org/2000/svg" viewBox="0 0 30.2 30.2">
  <title>sun</title>
  <g id="Icon-sun">
    <path d="M29.2,14.1H22.8a7.6,7.6,0,0,0-1.6-3.8l4.5-4.6a1,1,0,0,0,0-1.4,1.1,1.1,0,0,0-1.5,0L19.8,8.9a8.1,8.1,0,0,0-3.7-1.5V1a1,1,0,0,0-1-1,.9.9,0,0,0-1,1V7.4a8.4,8.4,0,0,0-3.8,1.5L5.7,4.3A1,1,0,0,0,4.3,5.7l4.6,4.6a8.4,8.4,0,0,0-1.5,3.8H1a.9.9,0,0,0-1,1,1,1,0,0,0,1,1H7.4a8.1,8.1,0,0,0,1.5,3.7L4.3,24.2a1.1,1.1,0,0,0,0,1.5A.9.9,0,0,0,5,26a1.1,1.1,0,0,0,.7-.3l4.6-4.5a7.6,7.6,0,0,0,3.8,1.6v6.4a1,1,0,0,0,1,1,1.1,1.1,0,0,0,1-1V22.8a7.3,7.3,0,0,0,3.7-1.6l4.5,4.5a.9.9,0,0,0,.7.3,1.1,1.1,0,0,0,.7-.3,1,1,0,0,0,0-1.4l-4.5-4.5a7.3,7.3,0,0,0,1.6-3.7h6.4a1.1,1.1,0,0,0,1-1A1,1,0,0,0,29.2,14.1ZM15.1,20.6a5.4,5.4,0,0,1-4-1.6,5.7,5.7,0,0,1-1.6-3.9,5.8,5.8,0,0,1,1.6-4,5.8,5.8,0,0,1,4-1.6A5.7,5.7,0,0,1,19,11.1a5.4,5.4,0,0,1,1.6,4,5.5,5.5,0,0,1-5.5,5.5Z" fill="#7ba57c"/>
  </g>
</svg>
