<svg xmlns="http://www.w3.org/2000/svg" viewBox="0 0 25.7 30.1">
  <title>leaf</title>
  <g id="Icon-leaf">
    <path d="M24.3,1.9l-.2-.3h-.3A14.1,14.1,0,0,0,7.6,4.2,13.9,13.9,0,0,0,4.9,20.4h0A38.8,38.8,0,0,0,.1,28.8a1,1,0,0,0,.5,1.3H1a.9.9,0,0,0,.9-.6C4.8,22.3,12.6,14.4,15,12.2a1,1,0,1,0-1.4-1.4,80.5,80.5,0,0,0-7.2,7.8A11.6,11.6,0,0,1,9.2,5.8,11.5,11.5,0,0,1,22.5,3.3,11.8,11.8,0,0,1,20,16.6,11.5,11.5,0,0,1,11.1,20c-.7,0-1.2.4-1.2,1s.4,1.2,1,1.2h.8a13.6,13.6,0,0,0,9.8-4.1C28.9,10.8,24.3,2,24.3,1.9Z" fill="#7ba57c"/>
  </g>
</svg>
