<svg xmlns="http://www.w3.org/2000/svg" id="instagram-icon" viewBox="0 0 612 792" width="612" height="792"><style>.st0{fill:#454443}</style><path d="M448.6 336.9c-.7-15.3-3.1-25.7-6.7-34.8-3.7-9.4-8.6-17.4-16.5-25.4-8-8-16-12.9-25.4-16.5-9.1-3.5-19.6-6-34.8-6.7-15.3-.7-20.2-.9-59.1-.9s-43.8.2-59.1.9c-15.3.7-25.7 3.1-34.8 6.7-9.4 3.7-17.4 8.6-25.4 16.5-8 8-12.9 16-16.5 25.4-3.5 9.1-6 19.6-6.7 34.8-.7 15.3-.9 20.2-.9 59.1s.2 43.8.9 59.1c.7 15.3 3.1 25.7 6.7 34.8 3.7 9.4 8.6 17.4 16.5 25.4 8 8 16 12.9 25.4 16.5 9.1 3.5 19.6 6 34.8 6.7 15.3.7 20.2.9 59.1.9s43.8-.2 59.1-.9c15.3-.7 25.7-3.1 34.8-6.7 9.4-3.7 17.4-8.6 25.4-16.5 8-8 12.9-16 16.5-25.4 3.5-9.1 6-19.6 6.7-34.8.7-15.3.9-20.2.9-59.1s-.2-43.8-.9-59.1zM422.8 454c-.6 14-3 21.6-4.9 26.6-2.6 6.7-5.7 11.5-10.7 16.5-5 5-9.8 8.1-16.5 10.7-5.1 2-12.7 4.3-26.6 4.9-15.1.7-19.7.8-58 .8s-42.8-.1-58-.8c-14-.6-21.6-3-26.6-4.9-6.7-2.6-11.5-5.7-16.5-10.7s-8.1-9.8-10.7-16.5c-2-5.1-4.3-12.7-4.9-26.6-.7-15.1-.8-19.7-.8-58s.1-42.8.8-58c.6-14 3-21.6 4.9-26.6 2.6-6.7 5.7-11.5 10.7-16.5 5-5 9.8-8.1 16.5-10.7 5.1-2 12.7-4.3 26.6-4.9 15.1-.7 19.7-.8 58-.8s42.8.1 58 .8c14 .6 21.6 3 26.6 4.9 6.7 2.6 11.5 5.7 16.5 10.7 5 5 8.1 9.8 10.7 16.5 2 5.1 4.3 12.7 4.9 26.6.7 15.1.8 19.7.8 58s-.2 42.8-.8 58zM306 322.3c-40.7 0-73.7 33-73.7 73.7s33 73.7 73.7 73.7 73.7-33 73.7-73.7-33-73.7-73.7-73.7zm0 121.5c-26.4 0-47.8-21.4-47.8-47.8s21.4-47.8 47.8-47.8 47.8 21.4 47.8 47.8-21.4 47.8-47.8 47.8zm76.6-141.6c-9.5 0-17.2 7.7-17.2 17.2s7.7 17.2 17.2 17.2 17.2-7.7 17.2-17.2-7.7-17.2-17.2-17.2z" class="st0"/></svg>