<?xml version="1.0" encoding="utf-8"?>
<!-- Generator: Adobe Illustrator 22.0.1, SVG Export Plug-In . SVG Version: 6.00 Build 0)  -->
<svg version="1.1" id="instagram-icon" xmlns="http://www.w3.org/2000/svg" xmlns:xlink="http://www.w3.org/1999/xlink" x="0px"
	 y="0px" viewBox="0 0 612 792" style="enable-background:new 0 0 612 792;" xml:space="preserve">
<style type="text/css">
	.st0{fill:#454443;}
</style>
<path class="st0" d="M448.6,336.9c-0.7-15.3-3.1-25.7-6.7-34.8c-3.7-9.4-8.6-17.4-16.5-25.4c-8-8-16-12.9-25.4-16.5
	c-9.1-3.5-19.6-6-34.8-6.7c-15.3-0.7-20.2-0.9-59.1-0.9s-43.8,0.2-59.1,0.9c-15.3,0.7-25.7,3.1-34.8,6.7
	c-9.4,3.7-17.4,8.6-25.4,16.5c-8,8-12.9,16-16.5,25.4c-3.5,9.1-6,19.6-6.7,34.8c-0.7,15.3-0.9,20.2-0.9,59.1s0.2,43.8,0.9,59.1
	c0.7,15.3,3.1,25.7,6.7,34.8c3.7,9.4,8.6,17.4,16.5,25.4c8,8,16,12.9,25.4,16.5c9.1,3.5,19.6,6,34.8,6.7c15.3,0.7,20.2,0.9,59.1,0.9
	s43.8-0.2,59.1-0.9c15.3-0.7,25.7-3.1,34.8-6.7c9.4-3.7,17.4-8.6,25.4-16.5c8-8,12.9-16,16.5-25.4c3.5-9.1,6-19.6,6.7-34.8
	c0.7-15.3,0.9-20.2,0.9-59.1S449.3,352.2,448.6,336.9z M422.8,454c-0.6,14-3,21.6-4.9,26.6c-2.6,6.7-5.7,11.5-10.7,16.5
	c-5,5-9.8,8.1-16.5,10.7c-5.1,2-12.7,4.3-26.6,4.9c-15.1,0.7-19.7,0.8-58,0.8s-42.8-0.1-58-0.8c-14-0.6-21.6-3-26.6-4.9
	c-6.7-2.6-11.5-5.7-16.5-10.7s-8.1-9.8-10.7-16.5c-2-5.1-4.3-12.7-4.9-26.6c-0.7-15.1-0.8-19.7-0.8-58s0.1-42.8,0.8-58
	c0.6-14,3-21.6,4.9-26.6c2.6-6.7,5.7-11.5,10.7-16.5c5-5,9.8-8.1,16.5-10.7c5.1-2,12.7-4.3,26.6-4.9c15.1-0.7,19.7-0.8,58-0.8
	s42.8,0.1,58,0.8c14,0.6,21.6,3,26.6,4.9c6.7,2.6,11.5,5.7,16.5,10.7c5,5,8.1,9.8,10.7,16.5c2,5.1,4.3,12.7,4.9,26.6
	c0.7,15.1,0.8,19.7,0.8,58S423.4,438.8,422.8,454z M306,322.3c-40.7,0-73.7,33-73.7,73.7s33,73.7,73.7,73.7s73.7-33,73.7-73.7
	S346.7,322.3,306,322.3z M306,443.8c-26.4,0-47.8-21.4-47.8-47.8s21.4-47.8,47.8-47.8s47.8,21.4,47.8,47.8S332.4,443.8,306,443.8z
	 M382.6,302.2c-9.5,0-17.2,7.7-17.2,17.2c0,9.5,7.7,17.2,17.2,17.2c9.5,0,17.2-7.7,17.2-17.2C399.8,309.9,392.1,302.2,382.6,302.2z"
	/>
</svg>
