<svg id="Layer_1" data-name="Layer 1" xmlns="http://www.w3.org/2000/svg" viewBox="0 0 64 64">
  <title>logo @ 64x64</title>
  <g>
    <path d="M64,64H0V0H64ZM1.9,62.1H62.1V1.9H1.9Z" fill="#2b705e"/>
    <g>
      <path d="M12.1,12.2,15.9,22l4-10.5L23.8,22l4-9.8h2.5L23.7,27.8,19.9,17.4,16,27.8,9.7,12.2Z" fill="#2b705e"/>
      <path d="M38.3,12.2V26.9H36.1V12.2Z" fill="#2b705e"/>
      <path d="M48.6,12.2V24.8h4.3v2.1H46.3V12.2Z" fill="#2b705e"/>
      <path d="M13.6,37V49.7h4.3v2H11.4V37Z" fill="#2b705e"/>
      <path d="M19.1,44.3A7.2,7.2,0,0,1,21.4,39a7.3,7.3,0,0,1,5.4-2.2A7.3,7.3,0,0,1,32.2,39a7.6,7.6,0,0,1-5.5,13,7.2,7.2,0,0,1-5.1-2A7,7,0,0,1,19.1,44.3Zm2.2,0A5.5,5.5,0,0,0,23,48.4a5.6,5.6,0,0,0,7.7-.1,5.4,5.4,0,0,0,1.5-3.9,5.3,5.3,0,0,0-5.4-5.6,5.5,5.5,0,0,0-5.5,5.5Z" fill="#2b705e"/>
      <path d="M37.8,37l3.8,9.9,4-10.6,3.8,10.6L53.5,37h2.4L49.3,52.7,45.5,42.3,41.6,52.7,35.3,37Z" fill="#2b705e"/>
    </g>
  </g>
</svg>
