<svg xmlns="http://www.w3.org/2000/svg" width="32" height="32" viewBox="0 0 32 32"><g fill="#2b705e"><path d="M32 32H0V0h32zM.9 31.1h30.2V.9H.9z"/><path d="M6.1 6.1L8 11l2-5.3 1.9 5.3 2-4.9h1.2l-3.3 7.8L10 8.7l-2 5.2-3.1-7.8zm13.1 0v7.4H18V6.1zm5.1 0v6.3h2.1v1.1h-3.2V6.1zM6.8 18.5v6.3H9v1.1H5.7v-7.4zm2.7 3.7a3.4 3.4 0 0 1 1.2-2.7 3.5 3.5 0 0 1 2.7-1.1 3.7 3.7 0 0 1 2.7 1.1 3.6 3.6 0 0 1 1.1 2.7 3.3 3.3 0 0 1-1.1 2.7 4 4 0 0 1-2.7 1.1 3.9 3.9 0 0 1-3.9-3.8zm1.2 0a2.4 2.4 0 0 0 .8 2 2.7 2.7 0 0 0 3.8 0 2.6 2.6 0 0 0 .8-2 2.7 2.7 0 0 0-2.7-2.8 2.6 2.6 0 0 0-1.9.8 2.4 2.4 0 0 0-.8 2zm8.2-3.7l1.9 4.9 2-5.2 1.9 5.2 2-4.9H28l-3.3 7.8-1.9-5.2-2 5.2-3.1-7.8z"/></g></svg>