<svg id="Layer_1" data-name="Layer 1" xmlns="http://www.w3.org/2000/svg" viewBox="0 0 255 255">
  <title>logo @ 256x256</title>
  <g>
    <path d="M255,255H0V0H255ZM7.6,247.4H247.4V7.6H7.6Z" fill="#2b705e"/>
    <g>
      <path d="M48.3,48.6,63.5,87.8l16-42.1L94.7,87.8,111,48.6h9.6L94.4,110.9,79.3,69.4,63.6,111,38.7,48.6Z" fill="#2b705e"/>
      <path d="M152.6,48.6v58.6h-8.8V48.6Z" fill="#2b705e"/>
      <path d="M193.5,48.6V98.9h17.2v8.3H184.6V48.6Z" fill="#2b705e"/>
      <path d="M54.2,147.5v50.4H71.5v8.3H45.4V147.5Z" fill="#2b705e"/>
      <path d="M76.1,176.6a28.7,28.7,0,0,1,9.1-21.3,29.8,29.8,0,0,1,21.7-8.9,30.7,30.7,0,0,1,30.5,30.5,28.9,28.9,0,0,1-9,21.5,31.3,31.3,0,0,1-42.4,1Q76.1,190.7,76.1,176.6Zm8.9.1a21.1,21.1,0,0,0,6.6,16,20.8,20.8,0,0,0,15,6.3,21.2,21.2,0,0,0,15.5-6.4,22.7,22.7,0,0,0,.1-31.5,20.9,20.9,0,0,0-15.4-6.3A21.5,21.5,0,0,0,85,176.7Z" fill="#2b705e"/>
      <path d="M150.4,147.5l15.3,39.2,16-42,15.2,42,16.2-39.2h9.6l-26.1,62.4-15.1-41.5-15.7,41.5-25-62.4Z" fill="#2b705e"/>
    </g>
  </g>
</svg>
