<svg xmlns="http://www.w3.org/2000/svg" viewBox="0 0 64 64" width="64" height="64"><g fill="#2b705e"><path d="M64 64H0V0h64zM1.9 62.1h60.2V1.9H1.9z"/><path d="M12.1 12.2l3.8 9.8 4-10.5L23.8 22l4-9.8h2.5l-6.6 15.6-3.8-10.4L16 27.8 9.7 12.2zm26.2 0v14.7h-2.2V12.2zm10.3 0v12.6h4.3v2.1h-6.6V12.2zM13.6 37v12.7h4.3v2h-6.5V37zm5.5 7.3a7.2 7.2 0 0 1 2.3-5.3 7.3 7.3 0 0 1 5.4-2.2 7.3 7.3 0 0 1 5.4 2.2 7.6 7.6 0 0 1-5.5 13 7.2 7.2 0 0 1-5.1-2 7 7 0 0 1-2.5-5.7zm2.2 0a5.5 5.5 0 0 0 1.7 4.1 5.6 5.6 0 0 0 7.7-.1 5.4 5.4 0 0 0 1.5-3.9 5.3 5.3 0 0 0-5.4-5.6 5.5 5.5 0 0 0-5.5 5.5zM37.8 37l3.8 9.9 4-10.6 3.8 10.6 4.1-9.9h2.4l-6.6 15.7-3.8-10.4-3.9 10.4L35.3 37z"/></g></svg>