<svg xmlns="http://www.w3.org/2000/svg" width="255" height="255" viewBox="0 0 255 255"><g fill="#2b705e"><path d="M255 255H0V0h255zM7.6 247.4h239.8V7.6H7.6z"/><path d="M48.3 48.6l15.2 39.2 16-42.1 15.2 42.1L111 48.6h9.6l-26.2 62.3-15.1-41.5L63.6 111 38.7 48.6zm104.3 0v58.6h-8.8V48.6zm40.9 0v50.3h17.2v8.3h-26.1V48.6zM54.2 147.5v50.4h17.3v8.3H45.4v-58.7zm21.9 29.1a28.7 28.7 0 0 1 9.1-21.3 29.8 29.8 0 0 1 21.7-8.9 30.7 30.7 0 0 1 30.5 30.5 28.9 28.9 0 0 1-9 21.5 31.3 31.3 0 0 1-42.4 1q-9.9-8.7-9.9-22.8zm8.9.1a21.1 21.1 0 0 0 6.6 16 20.8 20.8 0 0 0 15 6.3 21.2 21.2 0 0 0 15.5-6.4 22.7 22.7 0 0 0 .1-31.5 20.9 20.9 0 0 0-15.4-6.3A21.5 21.5 0 0 0 85 176.7zm65.4-29.2l15.3 39.2 16-42 15.2 42 16.2-39.2h9.6l-26.1 62.4-15.1-41.5-15.7 41.5-25-62.4z"/></g></svg>