<svg xmlns="http://www.w3.org/2000/svg" viewBox="0 0 16 16" width="16" height="16"><g fill="#2b705e"><path d="M16 16H0V0h16zM.5 15.5h15V.5H.5z"/><path d="M3 3l1 2.5 1-2.6.9 2.6L7 3h.6L5.9 7 5 4.4 4 7 2.4 3zm6.6 0v3.7H9V3zm2.5 0v3.2h1.1v.5h-1.6V3zM3.4 9.3v3.1h1.1v.5H2.8V9.3zm1.4 1.8a2.4 2.4 0 0 1 .5-1.4 2.4 2.4 0 0 1 1.4-.5 2 2 0 0 1 1.4.6 1.9 1.9 0 0 1 0 2.6 2 2 0 0 1-1.4.6 2.1 2.1 0 0 1-1.3-.5 1.8 1.8 0 0 1-.6-1.4zm.5 0a1.8 1.8 0 0 0 .4 1 1.3 1.3 0 0 0 1 .4 1.3 1.3 0 0 0 1-.4 1.8 1.8 0 0 0 .4-1 1.8 1.8 0 0 0-.4-1 1.3 1.3 0 0 0-1-.4 1.3 1.3 0 0 0-1 .4 1.8 1.8 0 0 0-.4 1zm4.1-1.8l1 2.4 1-2.6 1 2.6 1-2.4h.6l-1.7 3.9-.9-2.6-1 2.6-1.6-3.9z"/></g></svg>