<svg id="Layer_1" data-name="Layer 1" xmlns="http://www.w3.org/2000/svg" viewBox="0 0 16 16">
  <title>logo @ 16x16</title>
  <g>
    <path d="M16,16H0V0H16ZM.5,15.5h15V.5H.5Z" fill="#2b705e"/>
    <g>
      <path d="M3,3,4,5.5,5,2.9l.9,2.6L7,3h.6L5.9,7,5,4.4,4,7,2.4,3Z" fill="#2b705e"/>
      <path d="M9.6,3V6.7H9V3Z" fill="#2b705e"/>
      <path d="M12.1,3V6.2h1.1v.5H11.6V3Z" fill="#2b705e"/>
      <path d="M3.4,9.3v3.1H4.5v.5H2.8V9.3Z" fill="#2b705e"/>
      <path d="M4.8,11.1a2.4,2.4,0,0,1,.5-1.4,2.4,2.4,0,0,1,1.4-.5,2,2,0,0,1,1.4.6,1.9,1.9,0,0,1,0,2.6,2,2,0,0,1-1.4.6,2.1,2.1,0,0,1-1.3-.5A1.8,1.8,0,0,1,4.8,11.1Zm.5,0a1.8,1.8,0,0,0,.4,1,1.3,1.3,0,0,0,1,.4,1.3,1.3,0,0,0,1-.4,1.8,1.8,0,0,0,.4-1,1.8,1.8,0,0,0-.4-1,1.3,1.3,0,0,0-1-.4,1.3,1.3,0,0,0-1,.4A1.8,1.8,0,0,0,5.3,11.1Z" fill="#2b705e"/>
      <path d="M9.4,9.3l1,2.4,1-2.6,1,2.6,1-2.4H14l-1.7,3.9-.9-2.6-1,2.6L8.8,9.3Z" fill="#2b705e"/>
    </g>
  </g>
</svg>
