<svg id="Layer_1" data-name="Layer 1" xmlns="http://www.w3.org/2000/svg" viewBox="0 0 32 32">
  <title>logo @ 32x32</title>
  <g>
    <path d="M32,32H0V0H32ZM.9,31.1H31.1V.9H.9Z" fill="#2b705e"/>
    <g>
      <path d="M6.1,6.1,8,11l2-5.3L11.9,11l2-4.9h1.2l-3.3,7.8L10,8.7,8,13.9,4.9,6.1Z" fill="#2b705e"/>
      <path d="M19.2,6.1v7.4H18V6.1Z" fill="#2b705e"/>
      <path d="M24.3,6.1v6.3h2.1v1.1H23.2V6.1Z" fill="#2b705e"/>
      <path d="M6.8,18.5v6.3H9v1.1H5.7V18.5Z" fill="#2b705e"/>
      <path d="M9.5,22.2a3.4,3.4,0,0,1,1.2-2.7,3.5,3.5,0,0,1,2.7-1.1,3.7,3.7,0,0,1,2.7,1.1,3.6,3.6,0,0,1,1.1,2.7,3.3,3.3,0,0,1-1.1,2.7A4,4,0,0,1,13.4,26a3.9,3.9,0,0,1-3.9-3.8Zm1.2,0a2.4,2.4,0,0,0,.8,2,2.7,2.7,0,0,0,3.8,0,2.6,2.6,0,0,0,.8-2,2.7,2.7,0,0,0-2.7-2.8,2.6,2.6,0,0,0-1.9.8A2.4,2.4,0,0,0,10.7,22.2Z" fill="#2b705e"/>
      <path d="M18.9,18.5l1.9,4.9,2-5.2,1.9,5.2,2-4.9H28l-3.3,7.8-1.9-5.2-2,5.2-3.1-7.8Z" fill="#2b705e"/>
    </g>
  </g>
</svg>
