<?xml version="1.0" encoding="utf-8"?>
<!-- Generator: Adobe Illustrator 22.0.1, SVG Export Plug-In . SVG Version: 6.00 Build 0)  -->
<svg version="1.1" id="twitter-icon" xmlns="http://www.w3.org/2000/svg" xmlns:xlink="http://www.w3.org/1999/xlink" x="0px"
	 y="0px" viewBox="0 0 612 792" style="enable-background:new 0 0 612 792;" xml:space="preserve">
<style type="text/css">
	.st0{fill:#454443;}
</style>
<path class="st0" d="M459,301.3c-11.5,4.8-23,8.6-36.3,9.6c13.4-7.6,23-20.1,27.7-34.4c-12.4,7.6-25.8,12.4-40.2,15.3
	c-11.5-12.4-27.7-20.1-44.9-20.1c-34.4,0-63.1,27.7-63.1,63.1c0,4.8,1,9.6,1.9,14.3c-52.6-2.9-98.5-27.7-129.1-66
	c-5.7,9.6-8.6,20.1-8.6,31.6c0,22,11.5,41.1,27.7,52.6c-10.5,0-20.1-2.9-28.7-7.6v1c0,30.6,22,55.5,50.7,61.2
	c-5.7,1-10.5,1.9-16.3,1.9c-3.8,0-7.6,0-11.5-1c7.6,24.9,31.6,43,58.3,44c-21,17.2-48.8,26.8-78.4,26.8c-4.8,0-10.5,0-15.3-1
	c27.7,18.2,61.2,27.7,96.6,27.7c115.7,0,178.8-95.6,178.8-178.8c0-2.9,0-5.7,0-7.6C439.9,324.3,450.4,313.8,459,301.3z"/>
</svg>
