<svg xmlns="http://www.w3.org/2000/svg" width="25.2" height="21.2" viewBox="0 0 25.2 21.2"><path fill="#7e7e7e" d="M24.5 2.4a1.5 1.5 0 0 0-1.1-2 1.5 1.5 0 0 0-1.3.2l-1.6.7a6.1 6.1 0 0 0-8.6 1.1 5.8 5.8 0 0 0-1.2 2.9 11.2 11.2 0 0 1-6.3-3.8A1.4 1.4 0 0 0 3.2.8H3a1.6 1.6 0 0 0-1.3.8 6.5 6.5 0 0 0-.8 3.1 5.2 5.2 0 0 0 .4 2.1 1.5 1.5 0 0 0-.4 1.1 6.7 6.7 0 0 0 1.6 4.2 1.1 1.1 0 0 0 0 .8 6.4 6.4 0 0 0 1.8 2.8l-1.7.2h-1A1.6 1.6 0 0 0 0 17.5a1.6 1.6 0 0 0 .8 1.4 14.2 14.2 0 0 0 7.8 2.3A14.2 14.2 0 0 0 23 7.1v-.2a9.5 9.5 0 0 0 1.9-2.1 1.7 1.7 0 0 0 .3-1 1.7 1.7 0 0 0-.7-1.4zm-3.2 3.7v.6A12.8 12.8 0 0 1 8.5 19.5a13.2 13.2 0 0 1-6.9-2h1.1a9.5 9.5 0 0 0 5.6-1.9 4.5 4.5 0 0 1-4.2-3.1 4.5 4.5 0 0 0 2-.1 4.5 4.5 0 0 1-3.6-4.3 6.6 6.6 0 0 0 2 .6 4.5 4.5 0 0 1-1.4-6 13 13 0 0 0 9.3 4.7A4.5 4.5 0 0 1 15.8 2a4.3 4.3 0 0 1 4.3 1.3A10.2 10.2 0 0 0 23 2.1a4.9 4.9 0 0 1-2 2.5 11.1 11.1 0 0 0 2.6-.7 24.4 24.4 0 0 1-2.3 2.2z"/></svg>