<svg xmlns="http://www.w3.org/2000/svg" id="twitter-icon" viewBox="0 0 612 792" width="612" height="792"><style>.st0{fill:#454443}</style><path d="M459 301.3c-11.5 4.8-23 8.6-36.3 9.6 13.4-7.6 23-20.1 27.7-34.4-12.4 7.6-25.8 12.4-40.2 15.3-11.5-12.4-27.7-20.1-44.9-20.1-34.4 0-63.1 27.7-63.1 63.1 0 4.8 1 9.6 1.9 14.3-52.6-2.9-98.5-27.7-129.1-66-5.7 9.6-8.6 20.1-8.6 31.6 0 22 11.5 41.1 27.7 52.6-10.5 0-20.1-2.9-28.7-7.6v1c0 30.6 22 55.5 50.7 61.2-5.7 1-10.5 1.9-16.3 1.9-3.8 0-7.6 0-11.5-1 7.6 24.9 31.6 43 58.3 44-21 17.2-48.8 26.8-78.4 26.8-4.8 0-10.5 0-15.3-1 27.7 18.2 61.2 27.7 96.6 27.7 115.7 0 178.8-95.6 178.8-178.8v-7.6c11.6-9.6 22.1-20.1 30.7-32.6z" class="st0"/></svg>